<svg id="Layer_1" data-name="Layer 1" xmlns="http://www.w3.org/2000/svg" viewBox="0 0 464 133.33"><defs><style>.cls-1{fill:#231f20;}.cls-2{fill:#fff;}.cls-3{fill:#0088ce;}.cls-4{fill:#00a8e4;}.cls-5{fill:#bdda57;}.cls-6{fill:#68cef2;}</style></defs><path class="cls-1" d="M206.71,124.07H196V104.9h10.69v2h-8.46v6.17h7.95v2h-7.95v7.06h8.46Z"/><path class="cls-1" d="M214.09,116.71l-5-7h2.48l3.79,5.5,3.77-5.5h2.46l-5,7,5.26,7.36h-2.47l-4-5.82-4.07,5.82h-2.46Z"/><path class="cls-1" d="M230.45,124.33a6.13,6.13,0,0,1-4.83-1.92A7.86,7.86,0,0,1,223.9,117a8.13,8.13,0,0,1,1.74-5.57,6.27,6.27,0,0,1,5-2,9.73,9.73,0,0,1,2.07.23,7,7,0,0,1,1.63.52l-.67,1.85a10.74,10.74,0,0,0-1.57-.48,7.49,7.49,0,0,0-1.51-.19q-4.38,0-4.38,5.59a6.66,6.66,0,0,0,1.07,4.06,3.71,3.71,0,0,0,3.17,1.42,9.8,9.8,0,0,0,3.68-.77v1.92A7.82,7.82,0,0,1,230.45,124.33Z"/><path class="cls-1" d="M243.56,124.33a6.63,6.63,0,0,1-5-1.94,7.5,7.5,0,0,1-1.84-5.39,8.32,8.32,0,0,1,1.71-5.52,5.7,5.7,0,0,1,4.6-2,5.43,5.43,0,0,1,4.27,1.78,6.82,6.82,0,0,1,1.58,4.69v1.38H239a5.74,5.74,0,0,0,1.27,3.84,4.45,4.45,0,0,0,3.42,1.31,11.51,11.51,0,0,0,4.59-1v1.94a11.47,11.47,0,0,1-2.18.71A11.92,11.92,0,0,1,243.56,124.33ZM243,111.26a3.57,3.57,0,0,0-2.76,1.12,5.2,5.2,0,0,0-1.21,3.13h7.51a4.75,4.75,0,0,0-.92-3.16A3.21,3.21,0,0,0,243,111.26Z"/><path class="cls-1" d="M254.73,124.07h-2.17V103.66h2.17Z"/><path class="cls-1" d="M261.53,124.07h-2.18V103.66h2.18Z"/><path class="cls-1" d="M272.22,124.33a6.6,6.6,0,0,1-5-1.94,7.5,7.5,0,0,1-1.85-5.39,8.27,8.27,0,0,1,1.72-5.52,5.69,5.69,0,0,1,4.59-2,5.45,5.45,0,0,1,4.28,1.78,6.82,6.82,0,0,1,1.57,4.69v1.38h-9.9a5.69,5.69,0,0,0,1.28,3.84,4.44,4.44,0,0,0,3.41,1.31,11.51,11.51,0,0,0,4.59-1v1.94a11.25,11.25,0,0,1-2.18.71A11.82,11.82,0,0,1,272.22,124.33Zm-.59-13.07a3.54,3.54,0,0,0-2.76,1.12,5.21,5.21,0,0,0-1.22,3.13h7.52a4.8,4.8,0,0,0-.92-3.16A3.23,3.23,0,0,0,271.63,111.26Z"/><path class="cls-1" d="M291.05,124.07v-9.3a3.77,3.77,0,0,0-.8-2.62,3.27,3.27,0,0,0-2.51-.87,4.14,4.14,0,0,0-3.3,1.22,6.18,6.18,0,0,0-1.05,4v7.54h-2.18V109.7H283l.36,2h.1a4.43,4.43,0,0,1,1.88-1.64,6.06,6.06,0,0,1,2.68-.59,5.42,5.42,0,0,1,3.91,1.26,5.29,5.29,0,0,1,1.31,4v9.38Z"/><path class="cls-1" d="M303.44,124.33a6.13,6.13,0,0,1-4.83-1.92A7.9,7.9,0,0,1,296.9,117a8.18,8.18,0,0,1,1.73-5.57,6.27,6.27,0,0,1,4.95-2,9.82,9.82,0,0,1,2.08.23,6.86,6.86,0,0,1,1.62.52l-.67,1.85a10.74,10.74,0,0,0-1.57-.48,7.49,7.49,0,0,0-1.51-.19q-4.38,0-4.38,5.59a6.66,6.66,0,0,0,1.07,4.06,3.71,3.71,0,0,0,3.17,1.42,9.8,9.8,0,0,0,3.68-.77v1.92A7.82,7.82,0,0,1,303.44,124.33Z"/><path class="cls-1" d="M316.55,124.33a6.63,6.63,0,0,1-5-1.94,7.54,7.54,0,0,1-1.84-5.39,8.32,8.32,0,0,1,1.71-5.52,5.71,5.71,0,0,1,4.6-2,5.42,5.42,0,0,1,4.27,1.78,6.82,6.82,0,0,1,1.58,4.69v1.38h-9.9a5.69,5.69,0,0,0,1.28,3.84,4.41,4.41,0,0,0,3.41,1.31,11.51,11.51,0,0,0,4.59-1v1.94a11.47,11.47,0,0,1-2.18.71A11.92,11.92,0,0,1,316.55,124.33ZM316,111.26a3.57,3.57,0,0,0-2.76,1.12,5.27,5.27,0,0,0-1.21,3.13h7.51a4.8,4.8,0,0,0-.91-3.16A3.25,3.25,0,0,0,316,111.26Z"/><path class="cls-1" d="M335.08,116.1v8h-2.23V104.9h5.26a8.32,8.32,0,0,1,5.22,1.35,4.89,4.89,0,0,1,1.68,4.06q0,3.81-3.85,5.14l5.2,8.62h-2.63l-4.65-8Zm0-1.92h3.06a5.24,5.24,0,0,0,3.46-.94,3.46,3.46,0,0,0,1.1-2.81,3.19,3.19,0,0,0-1.12-2.74,6.08,6.08,0,0,0-3.6-.84h-2.9Z"/><path class="cls-1" d="M355.2,124.33a6.63,6.63,0,0,1-5-1.94,7.5,7.5,0,0,1-1.84-5.39,8.32,8.32,0,0,1,1.71-5.52,5.7,5.7,0,0,1,4.6-2,5.43,5.43,0,0,1,4.27,1.78,6.82,6.82,0,0,1,1.58,4.69v1.38h-9.91a5.74,5.74,0,0,0,1.28,3.84,4.45,4.45,0,0,0,3.42,1.31,11.51,11.51,0,0,0,4.59-1v1.94a11.47,11.47,0,0,1-2.18.71A11.92,11.92,0,0,1,355.2,124.33Zm-.59-13.07a3.57,3.57,0,0,0-2.76,1.12,5.2,5.2,0,0,0-1.21,3.13h7.51a4.8,4.8,0,0,0-.92-3.16A3.21,3.21,0,0,0,354.61,111.26Z"/><path class="cls-1" d="M374,122.14h-.12a5.11,5.11,0,0,1-4.51,2.19A5.34,5.34,0,0,1,365,122.4a8.5,8.5,0,0,1-1.56-5.48A8.62,8.62,0,0,1,365,111.4a5.3,5.3,0,0,1,4.38-2,5.23,5.23,0,0,1,4.49,2.13H374l-.1-1-.05-1v-5.85H376v20.41h-1.77Zm-4.35.37a4,4,0,0,0,3.23-1.21,6.15,6.15,0,0,0,1-3.92v-.46a7.26,7.26,0,0,0-1-4.36,3.86,3.86,0,0,0-3.25-1.3,3.31,3.31,0,0,0-2.93,1.49,7.36,7.36,0,0,0-1,4.2,7.15,7.15,0,0,0,1,4.16A3.44,3.44,0,0,0,369.63,122.51Z"/><path class="cls-1" d="M386.73,124.33a6.61,6.61,0,0,1-5-1.94,7.5,7.5,0,0,1-1.85-5.39,8.27,8.27,0,0,1,1.72-5.52,5.69,5.69,0,0,1,4.59-2,5.45,5.45,0,0,1,4.28,1.78A6.82,6.82,0,0,1,392,115.9v1.38h-9.9a5.69,5.69,0,0,0,1.28,3.84,4.44,4.44,0,0,0,3.41,1.31,11.51,11.51,0,0,0,4.59-1v1.94a11,11,0,0,1-2.18.71A11.82,11.82,0,0,1,386.73,124.33Zm-.59-13.07a3.54,3.54,0,0,0-2.76,1.12,5.21,5.21,0,0,0-1.22,3.13h7.52a4.8,4.8,0,0,0-.92-3.16A3.23,3.23,0,0,0,386.14,111.26Z"/><path class="cls-1" d="M402.2,111.39h-3.66v12.68h-2.18V111.39h-2.57v-1l2.57-.78v-.8c0-3.53,1.55-5.3,4.63-5.3a9.4,9.4,0,0,1,2.68.46l-.56,1.74a7.23,7.23,0,0,0-2.16-.4,2.09,2.09,0,0,0-1.82.82,4.57,4.57,0,0,0-.59,2.62v.94h3.66Zm2.44-5.59a1.41,1.41,0,0,1,.37-1.09,1.24,1.24,0,0,1,.91-.35,1.31,1.31,0,0,1,.91.35,1.44,1.44,0,0,1,.38,1.09,1.47,1.47,0,0,1-.38,1.1,1.28,1.28,0,0,1-.91.36,1.24,1.24,0,0,1-.91-.36A1.46,1.46,0,0,1,404.64,105.8ZM407,124.07h-2.18V109.7H407Z"/><path class="cls-1" d="M421.45,124.07v-9.3a3.72,3.72,0,0,0-.8-2.62,3.24,3.24,0,0,0-2.5-.87,4.15,4.15,0,0,0-3.31,1.22,6.18,6.18,0,0,0-1,4v7.54h-2.17V109.7h1.77l.35,2h.11a4.4,4.4,0,0,1,1.87-1.64,6.1,6.1,0,0,1,2.69-.59,5.45,5.45,0,0,1,3.91,1.26,5.33,5.33,0,0,1,1.31,4v9.38Z"/><path class="cls-1" d="M434.17,124.33a6.63,6.63,0,0,1-5-1.94A7.5,7.5,0,0,1,427.3,117a8.32,8.32,0,0,1,1.71-5.52,5.71,5.71,0,0,1,4.6-2,5.43,5.43,0,0,1,4.27,1.78,6.82,6.82,0,0,1,1.58,4.69v1.38h-9.9a5.74,5.74,0,0,0,1.27,3.84,4.45,4.45,0,0,0,3.42,1.31,11.51,11.51,0,0,0,4.59-1v1.94a11.47,11.47,0,0,1-2.18.71A11.92,11.92,0,0,1,434.17,124.33Zm-.59-13.07a3.57,3.57,0,0,0-2.76,1.12,5.27,5.27,0,0,0-1.21,3.13h7.51a4.75,4.75,0,0,0-.92-3.16A3.21,3.21,0,0,0,433.58,111.26Z"/><path class="cls-1" d="M453,122.14h-.12a5.11,5.11,0,0,1-4.51,2.19,5.3,5.3,0,0,1-4.38-1.93,8.44,8.44,0,0,1-1.57-5.48,8.62,8.62,0,0,1,1.57-5.52,5.3,5.3,0,0,1,4.38-2,5.23,5.23,0,0,1,4.49,2.13H453l-.09-1-.06-1v-5.85H455v20.41h-1.77Zm-4.35.37a4,4,0,0,0,3.23-1.21,6.15,6.15,0,0,0,1-3.92v-.46a7.26,7.26,0,0,0-1-4.36,3.86,3.86,0,0,0-3.25-1.3,3.31,3.31,0,0,0-2.93,1.49,7.36,7.36,0,0,0-1,4.2,7.15,7.15,0,0,0,1,4.16A3.44,3.44,0,0,0,448.6,122.51Z"/><path class="cls-2" d="M172.34,84.5l-23.4-22.14a1.46,1.46,0,0,0-1.85-.08l-6,4.67a1.39,1.39,0,0,0-.52,1.06V83.53a1.39,1.39,0,0,1-1.37,1.41h-4.88a1.38,1.38,0,0,1-1-.4,1.46,1.46,0,0,1-.41-1V37.67a1.46,1.46,0,0,1,.41-1,1.38,1.38,0,0,1,1-.4h4.84a1.39,1.39,0,0,1,1.41,1.37V57a1.37,1.37,0,0,0,.41,1,1.41,1.41,0,0,0,1,.41,1.75,1.75,0,0,0,.89-.27l28.68-22.31a1.46,1.46,0,0,1,1.59-.09l2.72,1.77a1.51,1.51,0,0,1,.45,1.93c-.09.09-.18.27-.36.35L154.3,56.54a1.42,1.42,0,0,0-.26,1.94c0,.09.09.09.18.18l25.07,23.82a1.36,1.36,0,0,1,.09,1.93,1.34,1.34,0,0,1-1,.45h-5.2a1.69,1.69,0,0,1-.89-.36Zm54.39-47.45,23.94,45.6a1.34,1.34,0,0,1-.56,1.82l-.06,0c-.18.09-.26.09-.44.18l-4.58.53a1.42,1.42,0,0,1-1.4-.71l-6.51-12.7a1.25,1.25,0,0,0-1.23-.7h-26a1.31,1.31,0,0,0-1.23.79l-6.07,12.17a1.5,1.5,0,0,1-1.23.79H197a1.39,1.39,0,0,1-1.41-1.37v0a1.67,1.67,0,0,1,.18-.62l23-45.77a1.49,1.49,0,0,1,1.23-.8h5.63a1.73,1.73,0,0,1,1.15.8Zm-5.37,9.09-9.24,18.34a1.34,1.34,0,0,0,.56,1.82l.06,0a1.58,1.58,0,0,0,.61.18h18.84a1.37,1.37,0,0,0,1-.41,1.38,1.38,0,0,0,.4-1,1.12,1.12,0,0,0-.17-.6l-9.59-18.35A1.36,1.36,0,0,0,222,45.5l-.06,0a1.48,1.48,0,0,0-.62.62Z"/><path id="B" class="cls-2" d="M268.88,83.45V37.67a1.4,1.4,0,0,1,1.41-1.42h4.14a1.42,1.42,0,0,1,1,.45l31.68,32.45,1.49,1.77a1.33,1.33,0,0,0,1.94.18A1.26,1.26,0,0,0,311,70V37.67a1.4,1.4,0,0,1,1.4-1.41h4.94a1.38,1.38,0,0,1,1.4,1.37V83.45a1.39,1.39,0,0,1-1.37,1.41h-4.26a1.45,1.45,0,0,1-1-.44L279.1,49.84a1.4,1.4,0,0,0-1.94-.27,1.45,1.45,0,0,0-.53,1.16V83.45a1.41,1.41,0,0,1-.41,1,1.37,1.37,0,0,1-1,.41h-4.84a1.42,1.42,0,0,1-1.5-1.41Z"/><path class="cls-2" d="M343.07,83.45V37.67a1.46,1.46,0,0,1,.41-1,1.43,1.43,0,0,1,1-.41h4.84a1.41,1.41,0,0,1,1,.41,1.46,1.46,0,0,1,.41,1V83.45a1.45,1.45,0,0,1-.41,1,1.41,1.41,0,0,1-1,.41h-4.84a1.39,1.39,0,0,1-1-.41A1.45,1.45,0,0,1,343.07,83.45Zm31.06,0V37.67a1.39,1.39,0,0,1,1.32-1.42h4.14a1.4,1.4,0,0,1,1,.45l31.68,32.45,1.49,1.77a1.34,1.34,0,0,0,1.94.18A1.28,1.28,0,0,0,416.2,70V37.67a1.4,1.4,0,0,1,1.4-1.41h4.94a1.38,1.38,0,0,1,1.4,1.37V83.45a1.39,1.39,0,0,1-1.36,1.41H418.4a1.43,1.43,0,0,1-1-.44L384.34,49.84a1.39,1.39,0,0,0-1.94-.27,1.44,1.44,0,0,0-.52,1.15V83.45a1.45,1.45,0,0,1-.41,1,1.37,1.37,0,0,1-1,.41h-4.93a1.41,1.41,0,0,1-1-.41,1.45,1.45,0,0,1-.41-1Zm73.23,0V37.67a1.4,1.4,0,0,1,.4-1,1.45,1.45,0,0,1,1-.41h4.84A1.4,1.4,0,0,1,455,37.63V83.45a1.39,1.39,0,0,1-1.37,1.41h-4.88a1.45,1.45,0,0,1-1-.41A1.4,1.4,0,0,1,447.36,83.45Z"/><path d="M172.34,84.41l-23.4-22.13a1.45,1.45,0,0,0-1.85-.09l-6,4.67a1.39,1.39,0,0,0-.52,1.06V83.45a1.39,1.39,0,0,1-1.37,1.41h-4.88a1.43,1.43,0,0,1-1-.41,1.45,1.45,0,0,1-.41-1V37.67a1.46,1.46,0,0,1,.41-1,1.43,1.43,0,0,1,1-.41h4.84a1.4,1.4,0,0,1,1.41,1.38V57a1.37,1.37,0,0,0,.41,1,1.41,1.41,0,0,0,1,.41,1.75,1.75,0,0,0,.89-.27l28.68-22.31a1.46,1.46,0,0,1,1.59-.09l2.72,1.77a1.51,1.51,0,0,1,.45,1.93c-.09.09-.18.27-.36.35L154.3,56.54a1.42,1.42,0,0,0-.26,1.94l.18.18,25.07,23.82a1.36,1.36,0,0,1,.09,1.93,1.34,1.34,0,0,1-1,.45h-5.2a1.3,1.3,0,0,1-.89-.45Zm54.39-47.36,23.94,45.6a1.34,1.34,0,0,1-.56,1.82l-.06,0c-.18.09-.26.09-.44.18l-4.58.53a1.42,1.42,0,0,1-1.4-.71l-6.51-12.61a1.38,1.38,0,0,0-1.23-.7h-26a1.31,1.31,0,0,0-1.23.79l-6.07,12.08a1.5,1.5,0,0,1-1.23.79H197a1.39,1.39,0,0,1-1.41-1.37v0a1.67,1.67,0,0,1,.18-.62l23-45.77a1.49,1.49,0,0,1,1.23-.8h5.63a1.48,1.48,0,0,1,1.15.8Zm-5.37,9.09-9.24,18.34a1.34,1.34,0,0,0,.56,1.82l.06,0a1.58,1.58,0,0,0,.61.18h18.84a1.37,1.37,0,0,0,1-.41,1.38,1.38,0,0,0,.4-1,1.12,1.12,0,0,0-.17-.6l-9.59-18.35A1.36,1.36,0,0,0,222,45.5l-.06,0a1.48,1.48,0,0,0-.62.62Z"/><path id="B-2" data-name="B" d="M268.88,83.45V37.67a1.4,1.4,0,0,1,1.41-1.42h4.14a1.42,1.42,0,0,1,1,.45l31.68,32.45,1.49,1.77a1.33,1.33,0,0,0,1.94.18A1.26,1.26,0,0,0,311,70V37.67a1.4,1.4,0,0,1,1.4-1.41h4.94a1.38,1.38,0,0,1,1.4,1.37V83.45a1.39,1.39,0,0,1-1.37,1.41h-4.26a1.45,1.45,0,0,1-1-.44L279.1,49.84a1.4,1.4,0,0,0-1.94-.27,1.45,1.45,0,0,0-.53,1.16V83.45a1.41,1.41,0,0,1-.41,1,1.37,1.37,0,0,1-1,.41h-4.84a1.42,1.42,0,0,1-1.5-1.41Z"/><path d="M343.07,83.45V37.67a1.46,1.46,0,0,1,.41-1,1.43,1.43,0,0,1,1-.41h4.84a1.41,1.41,0,0,1,1,.41,1.46,1.46,0,0,1,.41,1V83.45a1.45,1.45,0,0,1-.41,1,1.41,1.41,0,0,1-1,.41h-4.84a1.39,1.39,0,0,1-1-.41A1.45,1.45,0,0,1,343.07,83.45Zm31.06,0V37.67a1.39,1.39,0,0,1,1.32-1.42h4.14a1.4,1.4,0,0,1,1,.45l31.68,32.45,1.49,1.77a1.34,1.34,0,0,0,1.94.18A1.28,1.28,0,0,0,416.2,70V37.67a1.4,1.4,0,0,1,1.4-1.41h4.94a1.38,1.38,0,0,1,1.4,1.37V83.45a1.39,1.39,0,0,1-1.36,1.41H418.4a1.43,1.43,0,0,1-1-.44L384.34,49.84a1.39,1.39,0,0,0-1.94-.27,1.44,1.44,0,0,0-.52,1.15V83.45a1.45,1.45,0,0,1-.41,1,1.37,1.37,0,0,1-1,.41h-4.93a1.52,1.52,0,0,1-1.41-1.41Zm73.22,0V37.67a1.4,1.4,0,0,1,1.41-1.42h4.84A1.4,1.4,0,0,1,455,37.63V83.45a1.39,1.39,0,0,1-1.37,1.41h-4.88a1.4,1.4,0,0,1-1.41-1.41Z"/><path class="cls-3" d="M12.17,64.27H42A7.7,7.7,0,0,1,49.67,72v29.86a7.7,7.7,0,0,1-7.7,7.72h-.28a7.69,7.69,0,0,1-7.7-7.72v-22H12.17a7.77,7.77,0,0,1,0-15.53Z"/><path class="cls-4" d="M95.51,56.64H65.71A7.69,7.69,0,0,1,58,48.92V19.06a7.7,7.7,0,0,1,7.67-7.72H66a7.69,7.69,0,0,1,7.7,7.72V41.21H95.51a7.72,7.72,0,0,1,0,15.43Z"/><path class="cls-5" d="M7.22,26.23,88,107a8.67,8.67,0,0,0,12.26,0l0,0a8.72,8.72,0,0,0,0-12.31l-80.67-81a8.84,8.84,0,0,0-12.2-.18A8.75,8.75,0,0,0,6.94,26Z"/><path class="cls-4" d="M41.78,64.27H42A7.72,7.72,0,0,1,42,79.7H34.08c-.1,0-.1,0-.1-.09V72a7.78,7.78,0,0,1,7.8-7.72Z"/><path class="cls-6" d="M66,56.64H65.8a7.72,7.72,0,0,1,0-15.43h8v7.71A7.77,7.77,0,0,1,66,56.64Z"/></svg>